<svg xmlns="http://www.w3.org/2000/svg" viewBox="0 0 500 500" fill="none">
  <defs>
    <linearGradient id="grad1" x1="0%" y1="100%" x2="100%" y2="0%">
      <stop offset="0%" style="stop-color:#00D084;stop-opacity:1" />
      <stop offset="50%" style="stop-color:#00C2E0;stop-opacity:1" />
      <stop offset="100%" style="stop-color:#0066FF;stop-opacity:1" />
    </linearGradient>
    <linearGradient id="grad2" x1="0%" y1="100%" x2="100%" y2="0%">
      <stop offset="0%" style="stop-color:#00B574;stop-opacity:1" />
      <stop offset="100%" style="stop-color:#0052CC;stop-opacity:1" />
    </linearGradient>
  </defs>
  <!-- D shape (right arc) -->
  <path d="M180 60 H280 C400 60 460 140 460 250 C460 360 400 440 280 440 H180 Z" fill="url(#grad1)"/>
  <!-- Left bar top -->
  <path d="M40 80 L180 80 L180 180 L100 260 L40 260 Z" fill="url(#grad2)"/>
  <!-- Left bar bottom -->
  <path d="M40 300 L140 300 L180 340 L180 430 L40 430 Z" fill="url(#grad1)" opacity="0.85"/>
  <!-- Inner cutout to create D hollow -->
  <path d="M230 140 H280 C350 140 380 190 380 250 C380 310 350 360 280 360 H230 Z" fill="#0a0a0f"/>
</svg>
